<?xml version="1.0" encoding="iso-8859-1"?>
<!-- Generator: Adobe Illustrator 19.0.0, SVG Export Plug-In . SVG Version: 6.00 Build 0)  -->
<svg version="1.1" id="Capa_1" xmlns="http://www.w3.org/2000/svg" xmlns:xlink="http://www.w3.org/1999/xlink" x="0px" y="0px"
	 viewBox="0 0 512.001 512.001" style="enable-background:new 0 0 512.001 512.001;" xml:space="preserve">
<path style="fill:#EC615B;" d="M481.945,298.317c0-12.107-4.682-23.334-13.178-31.611c-27.906-28.624-76.988-8.659-76.988,31.611
	c0,19.809-30.055,19.891-30.055,0c0-59.197-90.166-59.698-90.166,0c0,19.809-30.055,19.891-30.055,0
	c0-59.197-91.168-59.698-91.168,0c0,19.809-30.055,19.891-30.055,0c0-59.197-90.166-59.698-90.166,0
	c0,19.809-30.055,19.891-30.055,0v-60.111c0-24.009,11.755-46.683,31.126-60.903c7.69-59.128,58.614-104.401,119.15-104.401
	c26.782,0,54.347,9.246,75.788,26.034c18.257,14.544,42.617,14.544,60.698,0.088c75.064-58.764,182.258-12.419,194.053,78.279
	c19.372,14.22,31.126,36.894,31.126,60.903v60.111C512,318.127,481.945,318.209,481.945,298.317z"/>
<path style="fill:#D5514A;" d="M480.874,177.303C469.078,86.605,361.885,40.26,286.82,99.024
	c-9.042,7.229-19.656,10.842-30.29,10.829v203.353c7.514-0.009,15.028-4.984,15.028-14.888c0-59.698,90.166-59.197,90.166,0
	c0,19.891,30.055,19.81,30.055,0c0-40.271,49.08-60.236,76.988-31.611c8.497,8.277,13.178,19.504,13.178,31.611
	c0,19.891,30.055,19.81,30.055,0v-60.111C512,214.197,500.245,191.524,480.874,177.303z"/>
<path style="fill:#D5DCEC;" d="M82.652,439.137H45.083C20.184,439.137,0,418.953,0,394.054V292.618
	c0-35.273,28.595-63.868,63.868-63.868l0,0c35.273,0,63.868,28.595,63.868,63.868v101.437
	C127.735,418.953,107.551,439.137,82.652,439.137z"/>
<path style="fill:#E6EEFF;" d="M211.389,439.137H173.82c-24.899,0-46.085-20.184-46.085-45.083V292.618
	c0-35.273,29.597-63.868,64.869-63.868l0,0c35.273,0,63.868,28.595,63.868,63.868v101.437
	C256.472,418.953,236.288,439.137,211.389,439.137z"/>
<path style="fill:#DAE2F2;" d="M339.125,439.137h-37.569c-24.899,0-45.083-20.184-45.083-45.083V292.618
	c0-35.273,28.595-63.868,63.868-63.868l0,0c35.273,0,63.868,28.595,63.868,63.868v101.437
	C384.208,418.953,364.023,439.137,339.125,439.137z"/>
<path style="fill:#C9D0DF;" d="M466.86,439.137h-37.569c-24.899,0-45.083-20.184-45.083-45.083V292.618
	c0-35.273,28.595-63.868,63.868-63.868l0,0c35.273,0,63.868,28.595,63.868,63.868v101.437
	C511.943,418.953,491.759,439.137,466.86,439.137z"/>
<path style="fill:#ABB1BD;" d="M512,313.345V343.4h-60.111v15.028c0,19.864-30.055,19.945-30.055,0V343.4h-90.166v15.028
	c0,19.864-30.055,19.945-30.055,0V343.4h-90.166v15.028c0,19.864-30.055,19.945-30.055,0V343.4H90.223v15.028
	c0,19.864-30.055,19.945-30.055,0V343.4H0.057v-30.055h60.111v-15.028c0-19.909,30.055-19.909,30.055,0v15.028h91.168v-15.028
	c0-19.909,30.055-19.909,30.055,0v15.028h90.166v-15.028c0-19.909,30.055-19.909,30.055,0v15.028h90.166v-15.028
	c0-19.909,30.055-19.909,30.055,0v15.028H512z"/>
<path style="fill:#A0A6B2;" d="M451.889,298.317c0-19.909-30.055-19.909-30.055,0v15.028h-90.166v-15.028
	c0-19.909-30.055-19.909-30.055,0v15.028h-45.083V343.4h45.083v15.028c0,19.944,30.055,19.864,30.055,0V343.4h90.166v15.028
	c0,19.944,30.055,19.864,30.055,0V343.4H512v-30.055h-60.111V298.317z"/>
<g>
</g>
<g>
</g>
<g>
</g>
<g>
</g>
<g>
</g>
<g>
</g>
<g>
</g>
<g>
</g>
<g>
</g>
<g>
</g>
<g>
</g>
<g>
</g>
<g>
</g>
<g>
</g>
<g>
</g>
</svg>
