<?xml version="1.0" encoding="iso-8859-1"?>
<!-- Generator: Adobe Illustrator 19.0.0, SVG Export Plug-In . SVG Version: 6.00 Build 0)  -->
<svg version="1.1" id="Capa_1" xmlns="http://www.w3.org/2000/svg" xmlns:xlink="http://www.w3.org/1999/xlink" x="0px" y="0px"
	 viewBox="0 0 512 512" style="enable-background:new 0 0 512 512;" xml:space="preserve">
<path style="fill:#EC615B;" d="M256,512c-1.392,0-2.769-0.19-4.116-0.571c-64.161-18.325-119.314-57.178-159.48-110.44
	c-40.167-53.277-61.407-116.691-61.407-183.401V75.994c0-8.291,6.709-15,15-15h38.951c58.536,0,115.959-21.142,161.676-57.72
	c5.479-4.365,13.272-4.365,18.75,0c45.719,36.577,103.141,57.72,161.677,57.72h38.951c8.291,0,15,6.709,15,15v141.594
	c0,66.71-21.24,130.124-61.407,183.4c-40.167,53.263-95.318,92.114-159.48,110.44C258.769,511.809,257.392,512,256,512z"/>
<path style="fill:#D5514A;" d="M260.117,511.428c64.161-18.325,119.314-57.178,159.48-110.44
	c40.167-53.277,61.407-116.691,61.407-183.401V75.994c0-8.291-6.709-15-15-15h-38.951c-58.536,0-115.959-21.142-161.677-57.72
	C262.636,1.091,259.318,0,256,0v512C257.392,512,258.769,511.809,260.117,511.428z"/>
<path style="fill:#E6EEFF;" d="M316,391.998c-24.814,0-45.001-20.186-45.001-45.001v-30c0-8.276-6.724-15-14.985-15
	c-8.276,0-15.015,6.724-15.015,15v30c0,24.814-20.186,45.001-45.001,45.001s-45.001-20.186-45.001-45.001v-15.659
	c0-29.326-5.845-53.995-17.358-73.316c-12.832-21.533-16.025-47.096-8.979-71.969c8.262-29.253,31.641-52.472,60.997-60.572
	c8.906-2.432,18.164-3.34,26.733-3.472c15.571,0.234,30.527,4.512,43.58,12.041c21.328-12.334,46.773-15.366,71.441-8.262
	c28.799,8.291,51.769,31.392,59.928,60.265c7.046,24.873,3.853,50.436-8.979,71.969c-11.514,19.321-17.358,43.99-17.358,73.316
	v15.659C361.001,371.812,340.816,391.998,316,391.998z"/>
<path style="fill:#DAE2F2;" d="M256,302l0.015-0.004c8.262,0,14.985,6.724,14.985,15v30c0,24.814,20.186,45.001,45.001,45.001
	s45.001-20.186,45.001-45.001v-15.659c0-29.326,5.845-53.995,17.358-73.316c12.832-21.533,16.025-47.096,8.979-71.969
	c-8.159-28.872-31.128-51.974-59.928-60.265c-24.657-7.101-50.09-4.072-71.412,8.249V302H256z"/>
<g>
</g>
<g>
</g>
<g>
</g>
<g>
</g>
<g>
</g>
<g>
</g>
<g>
</g>
<g>
</g>
<g>
</g>
<g>
</g>
<g>
</g>
<g>
</g>
<g>
</g>
<g>
</g>
<g>
</g>
</svg>
