<?xml version="1.0" encoding="iso-8859-1"?>
<!-- Generator: Adobe Illustrator 19.0.0, SVG Export Plug-In . SVG Version: 6.00 Build 0)  -->
<svg version="1.1" id="Capa_1" xmlns="http://www.w3.org/2000/svg" xmlns:xlink="http://www.w3.org/1999/xlink" x="0px" y="0px"
	 viewBox="0 0 512 512" style="enable-background:new 0 0 512 512;" xml:space="preserve">
<path style="fill:#E6EEFF;" d="M453.341,30.334c-2.102-2.102-4.506-3.604-6.606-5.107c-10.164-6.35-23.427,0.322-23.427,12.615
	v48.655c0,5.706-3.304,10.812-8.41,13.514l-29.532,12.615c-14.415,7.508-26.129,19.222-33.638,33.638l-22.525,45.351v-74.184
	c0-3.904,1.502-7.809,4.506-10.511l12.313-12.315c8.41-8.709,13.215-19.821,13.215-31.836V15.917c0-4.204-1.802-8.408-5.105-11.413
	c-6.421-5.775-16.266-3.356-24.929-1.502c-18.019,3.604-34.838,10.513-50.155,20.122c-15.619,9.912-34.239,9.912-49.857,0
	C205.162,8.108,177.53,0,148.998,0C34.904,0-50.826,127.554,35.17,248.378c35.74,50.157,53.759,103.817,53.759,155.476v41.146
	c0,88.925,135.152,90.512,135.152-2.704V399.65c0-39.66,60.068-39.68,60.068,0v45.351c0,88.811,135.152,90.754,135.152-2.704
	v-38.442c0-51.659,22.024-105.318,57.764-155.476C527.894,176.967,525.451,82.956,453.341,30.334z"/>
<path style="fill:#DAE2F2;" d="M284.15,399.65v45.351c0,88.811,135.152,90.754,135.152-2.704v-38.442
	c0-51.659,22.024-105.318,57.764-155.476c50.827-71.411,48.385-165.422-23.726-218.044c-2.102-2.102-4.506-3.604-6.606-5.107
	c-10.164-6.35-23.427,0.322-23.427,12.615v48.655c0,5.706-3.304,10.812-8.41,13.514l-29.532,12.615
	c-14.415,7.508-26.129,19.222-33.638,33.638l-22.525,45.351v-74.184c0-3.904,1.502-7.809,4.506-10.511l12.313-12.315
	c8.41-8.709,13.215-19.821,13.215-31.836V15.917c0-4.204-1.802-8.408-5.105-11.413c-6.421-5.776-16.265-3.357-24.929-1.502
	c-18.019,3.604-34.838,10.513-50.155,20.122c-7.809,4.955-16.369,7.433-24.929,7.433v339.34
	C269.134,369.896,284.15,379.809,284.15,399.65z"/>
<path style="fill:#BFC5D3;" d="M453.341,30.334v56.163c0,17.119-9.611,32.736-24.929,40.244l-25.528,12.915
	c-8.709,4.205-19.923,11.413-24.126,20.124L327.7,261.894c-2.704,5.406-7.809,8.41-13.515,8.41c-1.2,0-2.404,0-3.304-0.3
	c-6.909-1.802-11.713-7.809-11.713-14.717V117.431c0-12.013,4.804-23.125,13.215-31.836l12.312-12.313
	c3.004-2.704,4.506-6.608,4.506-10.513V3.002c4.205-0.9,8.709-1.502,13.215-2.102c4.506-0.3,8.709,0.902,11.713,3.604
	c3.304,3.004,5.105,7.21,5.105,11.413V62.77c0,12.015-4.804,23.127-13.215,31.836l-12.313,12.315
	c-3.004,2.702-4.506,6.606-4.506,10.511v74.184l22.525-45.351c7.508-14.415,19.222-26.129,33.638-33.638l29.532-12.615
	c5.107-2.702,8.41-7.807,8.41-13.514V37.843c0-5.706,3.002-10.813,7.809-13.215c5.105-2.704,10.812-2.404,15.619,0.6
	C448.835,26.73,451.237,28.232,453.341,30.334z"/>
<g>
</g>
<g>
</g>
<g>
</g>
<g>
</g>
<g>
</g>
<g>
</g>
<g>
</g>
<g>
</g>
<g>
</g>
<g>
</g>
<g>
</g>
<g>
</g>
<g>
</g>
<g>
</g>
<g>
</g>
</svg>
