<?xml version="1.0" encoding="iso-8859-1"?>
<!-- Generator: Adobe Illustrator 19.0.0, SVG Export Plug-In . SVG Version: 6.00 Build 0)  -->
<svg version="1.1" id="Capa_1" xmlns="http://www.w3.org/2000/svg" xmlns:xlink="http://www.w3.org/1999/xlink" x="0px" y="0px"
	 viewBox="0 0 512 512" style="enable-background:new 0 0 512 512;" xml:space="preserve">
<path style="fill:#E6EEFF;" d="M286.557,445.024v-45.287c0-39.687-60.071-39.694-60.071,0v45.287c0,89.265-137.162,89.336-137.162,0
	v-37.559c0-54.879-18.126-109.275-51.051-153.168C-51.703,134.294,32.604,0,149.395,0c28.496,0,58.231,8.022,82.224,23.201
	c14.621,9.254,35.242,9.225,49.805,0C305.417,8.022,333.149,0,361.645,0c117.096,0,202.349,134.065,112.123,254.296
	c-32.925,43.909-52.052,98.304-52.052,153.168v37.559C421.716,534.289,286.557,534.36,286.557,445.024z"/>
<path style="fill:#FFFFFF;" d="M150.055,261.732c-20.477-66.412-13.577-59.642-80.177-80.177c-14.052-4.356-14.052-24.359,0-28.716
	l38.526-11.879l0,0c29.3-9.013,31.803-36.362,41.651-68.298c3.901-12.583,26.817-12.583,30.718,0
	c20.525,66.567,13.697,59.679,80.177,80.177c14.052,4.356,14.052,24.359,0,28.716c-66.617,20.54-59.723,13.758-80.177,80.177
	C176.417,275.784,154.411,275.784,150.055,261.732z"/>
<path style="fill:#DAE2F2;" d="M361.645,0c-28.496,0-56.228,8.022-80.221,23.201c-7.302,4.625-16.127,6.929-24.955,6.92v339.856
	c15.036-0.024,30.088,9.891,30.088,29.759v45.287c0,89.336,135.159,89.265,135.159,0v-37.559c0-54.865,19.128-109.26,52.052-153.168
	C563.993,134.065,478.742,0,361.645,0z"/>
<g>
	<path style="fill:#E6EEFF;" d="M260.95,152.839c-1.602-0.494-2.965-0.904-4.482-1.368v31.451c1.518-0.464,2.88-0.874,4.482-1.368
		C275.002,177.197,275.002,157.195,260.95,152.839z"/>
	<path style="fill:#E6EEFF;" d="M421.056,143.16c-6.458-43.852-55.698-64.423-91.412-41.841
		c-16.72,10.611-32.854-14.78-16.044-25.401c53.652-33.848,127.463-3.089,137.169,62.872
		C453.638,158.389,423.993,163.098,421.056,143.16z"/>
</g>
<g>
</g>
<g>
</g>
<g>
</g>
<g>
</g>
<g>
</g>
<g>
</g>
<g>
</g>
<g>
</g>
<g>
</g>
<g>
</g>
<g>
</g>
<g>
</g>
<g>
</g>
<g>
</g>
<g>
</g>
</svg>
