<?xml version="1.0" encoding="iso-8859-1"?>
<!-- Generator: Adobe Illustrator 19.0.0, SVG Export Plug-In . SVG Version: 6.00 Build 0)  -->
<svg version="1.1" id="Capa_1" xmlns="http://www.w3.org/2000/svg" xmlns:xlink="http://www.w3.org/1999/xlink" x="0px" y="0px"
	 viewBox="0 0 512 512" style="enable-background:new 0 0 512 512;" xml:space="preserve">
<path style="fill:#A1A7B3;" d="M268.041,511.947H243.96c-35.283,0-65.466-24.243-73.39-58.968l-36.445-163.57
	c-2.096-9.367,5.009-18.333,14.687-18.333H363.19c9.677,0,16.782,8.966,14.687,18.333l-36.431,163.496
	C333.507,487.704,303.325,511.947,268.041,511.947z"/>
<g>
	<path style="fill:#7F838C;" d="M135.551,391.512c-18.647,0-20.432-27.673-1.853-29.991l240.87-30.109
		c19.589-2.514,23.574,27.398,3.734,29.874l-240.87,30.109C136.8,391.467,136.168,391.512,135.551,391.512z"/>
	<path style="fill:#7F838C;" d="M150.605,451.729c-18.498,0-20.504-27.335-2.117-29.962l210.762-30.109
		c19.548-2.842,24.059,26.987,4.263,29.815l-210.762,30.109C152.031,451.685,151.311,451.729,150.605,451.729z"/>
</g>
<path style="fill:#E6EEFF;" d="M416.38,301.185H95.621c-42.2,0-58.898-26.064-75.345-56.175
	C-32.659,148.199,22.95,26.087,130.302,3.773c44.531-9.262,89.429-0.544,125.713,23.081c36.93-24.14,81.152-32.358,125.698-23.081
	c107.351,22.32,162.953,144.463,109.997,241.238C475.262,275.169,458.584,301.185,416.38,301.185z"/>
<path style="fill:#979CA7;" d="M363.189,271.076H256v240.87h12.04c35.284,0,65.466-24.243,73.405-59.041l36.431-163.496
	C379.971,280.043,372.866,271.076,363.189,271.076z"/>
<path style="fill:#DAE2F2;" d="M381.713,3.773c-44.546-9.277-88.768-1.059-125.698,23.081c0,0-0.009-0.004-0.015-0.007v274.338
	H416.38c42.204,0,58.884-26.016,75.331-56.175C544.667,148.236,489.064,26.091,381.713,3.773z"/>
<g>
	<path style="fill:#757982;" d="M374.569,331.411L256,346.232v30.341l122.302-15.288
		C398.143,358.809,394.158,328.897,374.569,331.411z"/>
	<path style="fill:#757982;" d="M359.249,391.658L256,406.408v30.425l107.512-15.359
		C383.308,418.645,378.797,388.816,359.249,391.658z"/>
</g>
<path style="fill:#D2DAE9;" d="M60.293,165.696c0-58.101,47.28-105.381,105.381-105.381c19.845,0,19.926,30.109,0,30.109
	c-41.503,0-75.272,33.769-75.272,75.272C90.402,185.54,60.293,185.622,60.293,165.696z"/>
<g>
</g>
<g>
</g>
<g>
</g>
<g>
</g>
<g>
</g>
<g>
</g>
<g>
</g>
<g>
</g>
<g>
</g>
<g>
</g>
<g>
</g>
<g>
</g>
<g>
</g>
<g>
</g>
<g>
</g>
</svg>
